<svg width="79" height="30" viewBox="0 0 79 30" fill="none" xmlns="http://www.w3.org/2000/svg">
<path d="M5.37 29V0.859999H6.42V29H5.37ZM0.75 29V0.859999H1.8V29H0.75ZM3.06 29V0.859999H4.11V29H3.06ZM7.68 1.91V0.859999H21.645V1.91H7.68ZM7.68 4.22V3.17H21.645V4.22H7.68ZM7.68 6.53V5.48H21.645V6.53H7.68ZM7.68 13.145V12.095H19.65V13.145H7.68ZM7.68 15.455V14.405H19.65V15.455H7.68ZM7.68 17.765V16.715H19.65V17.765H7.68ZM7.68 24.38V23.33H21.645V24.38H7.68ZM7.68 26.69V25.64H21.645V26.69H7.68ZM7.68 29V27.95H21.645V29H7.68ZM37.6479 24.905C35.5713 24.905 33.7863 24.4617 32.2929 23.575C30.7996 22.665 29.6563 21.4517 28.8629 19.935C28.0696 18.4183 27.6729 16.75 27.6729 14.93C27.6729 13.0867 28.0696 11.4183 28.8629 9.925C29.6563 8.40833 30.7996 7.20667 32.2929 6.32C33.7863 5.41 35.5713 4.955 37.6479 4.955C39.1646 4.955 40.5296 5.21167 41.7429 5.725C42.9563 6.215 43.9829 6.90333 44.8229 7.79L44.0879 8.525C43.3179 7.755 42.3963 7.14833 41.3229 6.705C40.2496 6.26167 39.0246 6.04 37.6479 6.04C35.7813 6.04 34.1713 6.44833 32.8179 7.265C31.4879 8.05833 30.4729 9.13167 29.7729 10.485C29.0729 11.815 28.7229 13.2967 28.7229 14.93C28.7229 16.5633 29.0729 18.0567 29.7729 19.41C30.4729 20.74 31.4879 21.8133 32.8179 22.63C34.1713 23.4233 35.7813 23.82 37.6479 23.82C39.0246 23.82 40.2496 23.5983 41.3229 23.155C42.3963 22.7117 43.3179 22.105 44.0879 21.335L44.8229 22.07C43.9829 22.9333 42.9563 23.6217 41.7429 24.135C40.5296 24.6483 39.1646 24.905 37.6479 24.905ZM37.6479 27.215C35.7813 27.215 34.0896 26.9 32.5729 26.27C31.0796 25.6167 29.7846 24.73 28.6879 23.61C27.6146 22.49 26.7863 21.195 26.2029 19.725C25.6429 18.2317 25.3629 16.6333 25.3629 14.93C25.3629 13.2267 25.6429 11.64 26.2029 10.17C26.7863 8.67666 27.6146 7.37 28.6879 6.25C29.7846 5.10666 31.0796 4.22 32.5729 3.59C34.0896 2.96 35.7813 2.645 37.6479 2.645C39.4913 2.645 41.1479 2.96 42.6179 3.59C44.1113 4.19667 45.3946 5.04833 46.4679 6.145L45.6979 6.915C44.7413 5.91167 43.5746 5.13 42.1979 4.57C40.8446 4.01 39.3279 3.73 37.6479 3.73C35.3613 3.73 33.3663 4.23166 31.6629 5.235C29.9829 6.23833 28.6879 7.59167 27.7779 9.295C26.8679 10.975 26.4129 12.8533 26.4129 14.93C26.4129 16.9833 26.8679 18.8617 27.7779 20.565C28.6879 22.2683 29.9829 23.6217 31.6629 24.625C33.3663 25.6283 35.3613 26.13 37.6479 26.13C39.3279 26.13 40.8446 25.85 42.1979 25.29C43.5746 24.73 44.7413 23.9483 45.6979 22.945L46.4679 23.715C45.3946 24.7883 44.1113 25.64 42.6179 26.27C41.1479 26.9 39.4913 27.215 37.6479 27.215ZM37.6479 29.525C35.4546 29.525 33.4596 29.1517 31.6629 28.405C29.8896 27.635 28.3613 26.585 27.0779 25.255C25.7946 23.925 24.8029 22.385 24.1029 20.635C23.4029 18.8617 23.0529 16.96 23.0529 14.93C23.0529 12.9 23.4029 11.01 24.1029 9.26C24.8029 7.48667 25.7946 5.935 27.0779 4.605C28.3613 3.275 29.8896 2.23667 31.6629 1.49C33.4596 0.719998 35.4546 0.334998 37.6479 0.334998C39.7946 0.334998 41.7546 0.708331 43.5279 1.455C45.3013 2.17833 46.8296 3.19333 48.1129 4.5L47.3779 5.235C46.1879 4.045 44.7646 3.11167 43.1079 2.435C41.4746 1.735 39.6546 1.385 37.6479 1.385C35.5946 1.385 33.7396 1.735 32.0829 2.435C30.4263 3.135 29.0029 4.10333 27.8129 5.34C26.6229 6.57667 25.7013 8.02333 25.0479 9.68C24.4179 11.3133 24.1029 13.0633 24.1029 14.93C24.1029 16.7967 24.4179 18.5583 25.0479 20.215C25.7013 21.8483 26.6229 23.2833 27.8129 24.52C29.0029 25.7567 30.4263 26.725 32.0829 27.425C33.7396 28.125 35.5946 28.475 37.6479 28.475C39.6546 28.475 41.4746 28.1367 43.1079 27.46C44.7646 26.76 46.1879 25.815 47.3779 24.625L48.1129 25.36C46.8296 26.6433 45.3013 27.6583 43.5279 28.405C41.7546 29.1517 39.7946 29.525 37.6479 29.525ZM76.9644 14.93C76.9644 13.0633 76.6377 11.3133 75.9844 9.68C75.3544 8.02333 74.4444 6.57667 73.2544 5.34C72.0644 4.10333 70.6411 3.135 68.9844 2.435C67.3277 1.735 65.4727 1.385 63.4194 1.385C61.3661 1.385 59.5111 1.735 57.8544 2.435C56.1977 3.135 54.7744 4.10333 53.5844 5.34C52.3944 6.57667 51.4727 8.02333 50.8194 9.68C50.1894 11.3133 49.8744 13.0633 49.8744 14.93C49.8744 16.7967 50.1894 18.5583 50.8194 20.215C51.4727 21.8483 52.3944 23.2833 53.5844 24.52C54.7744 25.7567 56.1977 26.725 57.8544 27.425C59.5111 28.125 61.3661 28.475 63.4194 28.475C65.4727 28.475 67.3277 28.125 68.9844 27.425C70.6411 26.725 72.0644 25.7567 73.2544 24.52C74.4444 23.2833 75.3544 21.8483 75.9844 20.215C76.6377 18.5583 76.9644 16.7967 76.9644 14.93ZM74.6544 14.93C74.6544 12.8533 74.1994 10.975 73.2894 9.295C72.3794 7.59167 71.0844 6.23833 69.4044 5.235C67.7244 4.23166 65.7294 3.73 63.4194 3.73C61.1327 3.73 59.1377 4.23166 57.4344 5.235C55.7544 6.23833 54.4594 7.59167 53.5494 9.295C52.6394 10.975 52.1844 12.8533 52.1844 14.93C52.1844 16.9833 52.6394 18.8617 53.5494 20.565C54.4594 22.2683 55.7544 23.6217 57.4344 24.625C59.1377 25.6283 61.1327 26.13 63.4194 26.13C65.7294 26.13 67.7244 25.6283 69.4044 24.625C71.0844 23.6217 72.3794 22.2683 73.2894 20.565C74.1994 18.8617 74.6544 16.9833 74.6544 14.93ZM72.3444 14.93C72.3444 13.2967 71.9944 11.815 71.2944 10.485C70.5944 9.13167 69.5794 8.05833 68.2494 7.265C66.9194 6.44833 65.3094 6.04 63.4194 6.04C61.5527 6.04 59.9427 6.44833 58.5894 7.265C57.2594 8.05833 56.2444 9.13167 55.5444 10.485C54.8444 11.815 54.4944 13.2967 54.4944 14.93C54.4944 16.5633 54.8444 18.0567 55.5444 19.41C56.2444 20.74 57.2594 21.8133 58.5894 22.63C59.9427 23.4233 61.5527 23.82 63.4194 23.82C65.3094 23.82 66.9194 23.4233 68.2494 22.63C69.5794 21.8133 70.5944 20.74 71.2944 19.41C71.9944 18.0567 72.3444 16.5633 72.3444 14.93ZM63.4194 24.905C61.3427 24.905 59.5577 24.4617 58.0644 23.575C56.5711 22.665 55.4277 21.4517 54.6344 19.935C53.8411 18.4183 53.4444 16.75 53.4444 14.93C53.4444 13.0867 53.8411 11.4183 54.6344 9.925C55.4277 8.40833 56.5711 7.20667 58.0644 6.32C59.5577 5.41 61.3427 4.955 63.4194 4.955C65.4961 4.955 67.2811 5.41 68.7744 6.32C70.2677 7.20667 71.4111 8.40833 72.2044 9.925C72.9977 11.4183 73.3944 13.0867 73.3944 14.93C73.3944 16.75 72.9977 18.4183 72.2044 19.935C71.4111 21.4517 70.2677 22.665 68.7744 23.575C67.2811 24.4617 65.4961 24.905 63.4194 24.905ZM63.4194 27.215C61.5527 27.215 59.8611 26.9 58.3444 26.27C56.8511 25.6167 55.5561 24.73 54.4594 23.61C53.3861 22.49 52.5577 21.195 51.9744 19.725C51.4144 18.2317 51.1344 16.6333 51.1344 14.93C51.1344 13.2267 51.4144 11.64 51.9744 10.17C52.5577 8.67666 53.3861 7.37 54.4594 6.25C55.5561 5.10666 56.8511 4.22 58.3444 3.59C59.8611 2.96 61.5527 2.645 63.4194 2.645C65.2861 2.645 66.9661 2.96 68.4594 3.59C69.9761 4.22 71.2711 5.10666 72.3444 6.25C73.4411 7.37 74.2694 8.67666 74.8294 10.17C75.4127 11.64 75.7044 13.2267 75.7044 14.93C75.7044 16.6333 75.4127 18.2317 74.8294 19.725C74.2694 21.195 73.4411 22.49 72.3444 23.61C71.2711 24.73 69.9761 25.6167 68.4594 26.27C66.9661 26.9 65.2861 27.215 63.4194 27.215ZM63.4194 29.525C61.2261 29.525 59.2311 29.1517 57.4344 28.405C55.6611 27.635 54.1327 26.585 52.8494 25.255C51.5661 23.925 50.5744 22.385 49.8744 20.635C49.1744 18.8617 48.8244 16.96 48.8244 14.93C48.8244 12.9 49.1744 11.01 49.8744 9.26C50.5744 7.48667 51.5661 5.935 52.8494 4.605C54.1327 3.275 55.6611 2.23667 57.4344 1.49C59.2311 0.719998 61.2261 0.334998 63.4194 0.334998C65.6127 0.334998 67.5961 0.719998 69.3694 1.49C71.1661 2.23667 72.7061 3.275 73.9894 4.605C75.2727 5.935 76.2644 7.48667 76.9644 9.26C77.6644 11.01 78.0144 12.9 78.0144 14.93C78.0144 16.96 77.6644 18.8617 76.9644 20.635C76.2644 22.385 75.2727 23.925 73.9894 25.255C72.7061 26.585 71.1661 27.635 69.3694 28.405C67.5961 29.1517 65.6127 29.525 63.4194 29.525Z" fill="#086400"/>
</svg>
