<svg width="71" height="70" viewBox="0 0 71 70" fill="none" xmlns="http://www.w3.org/2000/svg">
<g filter="url(#filter0_d_66_85)">
<path d="M35.5242 2.79381C27.4602 2.71186 19.6935 5.83504 13.9311 11.4769C8.16872 17.1188 4.88215 24.8178 4.7937 32.8818C4.82477 39.2547 6.87484 45.4537 10.6494 50.5886C14.424 55.7235 19.729 59.5299 25.8022 61.4612C27.3387 61.7406 27.8975 60.8186 27.8975 60.0085C27.8975 59.1983 27.8975 57.4104 27.8975 54.896C19.3488 56.7119 17.5329 50.8731 17.5329 50.8731C16.9638 49.0402 15.754 47.4733 14.1246 46.4591C11.3309 44.6153 14.3481 44.6432 14.3481 44.6432C15.3137 44.7723 16.2376 45.1184 17.0505 45.6554C17.8633 46.1925 18.544 46.9066 19.0415 47.7442C19.9085 49.2475 21.331 50.3504 23.003 50.8154C24.6749 51.2804 26.4626 51.0704 27.9813 50.2306C28.1375 48.7007 28.8303 47.2755 29.9369 46.2077C23.1203 45.4534 15.9684 42.8832 15.9684 31.3453C15.9075 28.3356 17.0195 25.4202 19.0694 23.2156C18.1359 20.6317 18.2461 17.7856 19.3767 15.2816C19.3767 15.2816 21.9749 14.4714 27.7578 18.3546C32.7917 17.0132 38.0891 17.0132 43.1231 18.3546C48.9898 14.4714 51.5041 15.2816 51.5041 15.2816C52.6348 17.7856 52.745 20.6317 51.8114 23.2156C53.9089 25.3798 55.0813 28.2756 55.08 31.2894C55.08 42.8553 47.8723 45.3975 41.1116 46.1518C41.8519 46.8705 42.4237 47.7444 42.786 48.7104C43.1483 49.6765 43.292 50.7109 43.2069 51.7392V59.9805C43.2069 59.9805 43.7656 61.7406 45.3021 61.4333C51.3582 59.49 56.6452 55.6826 60.4081 50.555C64.1711 45.4274 66.2174 39.2419 66.2548 32.8818C66.1663 24.8178 62.8798 17.1188 57.1174 11.4769C51.355 5.83504 43.5883 2.71186 35.5242 2.79381Z" fill="#086400"/>
</g>
<defs>
<filter id="filter0_d_66_85" x="0.793701" y="2.79224" width="69.4612" height="66.72" filterUnits="userSpaceOnUse" color-interpolation-filters="sRGB">
<feFlood flood-opacity="0" result="BackgroundImageFix"/>
<feColorMatrix in="SourceAlpha" type="matrix" values="0 0 0 0 0 0 0 0 0 0 0 0 0 0 0 0 0 0 127 0" result="hardAlpha"/>
<feOffset dy="4"/>
<feGaussianBlur stdDeviation="2"/>
<feComposite in2="hardAlpha" operator="out"/>
<feColorMatrix type="matrix" values="0 0 0 0 0 0 0 0 0 0 0 0 0 0 0 0 0 0 0.25 0"/>
<feBlend mode="normal" in2="BackgroundImageFix" result="effect1_dropShadow_66_85"/>
<feBlend mode="normal" in="SourceGraphic" in2="effect1_dropShadow_66_85" result="shape"/>
</filter>
</defs>
</svg>
