<svg width="71" height="71" viewBox="0 0 71 71" fill="none" xmlns="http://www.w3.org/2000/svg">
<path d="M59.3146 32.5417H11.6854C10.1333 32.5417 8.875 33.7999 8.875 35.3521V35.6479C8.875 37.2001 10.1333 38.4583 11.6854 38.4583H59.3146C60.8667 38.4583 62.125 37.2001 62.125 35.6479V35.3521C62.125 33.7999 60.8667 32.5417 59.3146 32.5417Z" fill="#086400"/>
<path d="M59.3146 47.3333H11.6854C10.1333 47.3333 8.875 48.5916 8.875 50.1438V50.4396C8.875 51.9917 10.1333 53.25 11.6854 53.25H59.3146C60.8667 53.25 62.125 51.9917 62.125 50.4396V50.1438C62.125 48.5916 60.8667 47.3333 59.3146 47.3333Z" fill="#086400"/>
<path d="M59.3146 17.75H11.6854C10.1333 17.75 8.875 19.0083 8.875 20.5604V20.8563C8.875 22.4084 10.1333 23.6667 11.6854 23.6667H59.3146C60.8667 23.6667 62.125 22.4084 62.125 20.8563V20.5604C62.125 19.0083 60.8667 17.75 59.3146 17.75Z" fill="#086400"/>
</svg>
