<svg width="237" height="152" viewBox="0 0 237 152" fill="none" xmlns="http://www.w3.org/2000/svg">
<path d="M1 65.3334L1 140C1 145.891 5.55177 150.667 11.1667 150.667H51.8333C57.4482 150.667 62 145.891 62 140L62 65.3334C62 59.4424 57.4482 54.6667 51.8333 54.6667H11.1667C5.55177 54.6667 1 59.4424 1 65.3334Z" stroke="#FAC254" stroke-width="2" stroke-linecap="round" stroke-linejoin="round"/>
<path d="M21.3333 124H41.6666" stroke="#FAC254" stroke-width="2" stroke-linecap="round" stroke-linejoin="round"/>
<path d="M21.3333 54.6667V46.6667C21.3333 45.9595 21.601 45.2812 22.0777 44.7811C22.5543 44.281 23.2008 44.0001 23.8749 44.0001H39.1249C39.799 44.0001 40.4455 44.281 40.9222 44.7811C41.3988 45.2812 41.6666 45.9595 41.6666 46.6667V54.6667H21.3333Z" stroke="#FAC254" stroke-width="2" stroke-linecap="round" stroke-linejoin="round"/>
<path d="M85 46.1333V137.6C85 144.817 89.7756 150.667 95.6667 150.667H138.333C144.224 150.667 149 144.817 149 137.6V46.1333C149 38.9168 144.224 33.0667 138.333 33.0667H95.6667C89.7756 33.0667 85 38.9168 85 46.1333Z" stroke="#FAC254" stroke-width="2" stroke-linecap="round" stroke-linejoin="round"/>
<path d="M106.333 33.0667V23.2666C106.333 22.4003 106.614 21.5694 107.114 20.9568C107.614 20.3441 108.293 20 109 20H125C125.707 20 126.385 20.3441 126.886 20.9568C127.386 21.5694 127.667 22.4003 127.667 23.2666V33.0667H106.333Z" stroke="#FAC254" stroke-width="2" stroke-linecap="round" stroke-linejoin="round"/>
<path d="M106.333 118H127.667" stroke="#FAC254" stroke-width="2" stroke-linecap="round" stroke-linejoin="round"/>
<path d="M106.333 91.8667H127.667" stroke="#FAC254" stroke-width="2" stroke-linecap="round" stroke-linejoin="round"/>
<path d="M172 31V136C172 144.284 176.776 151 182.667 151H225.333C231.224 151 236 144.284 236 136V31C236 22.7157 231.224 16 225.333 16H182.667C176.776 16 172 22.7157 172 31Z" stroke="#FAC254" stroke-width="2" stroke-linecap="round" stroke-linejoin="round"/>
<path d="M193.333 113.5H214.667" stroke="#FAC254" stroke-width="2" stroke-linecap="round" stroke-linejoin="round"/>
<path d="M193.333 83.5H214.667" stroke="#FAC254" stroke-width="2" stroke-linecap="round" stroke-linejoin="round"/>
<path d="M193.333 53.5H214.667" stroke="#FAC254" stroke-width="2" stroke-linecap="round" stroke-linejoin="round"/>
<path d="M193.333 16V4.75C193.333 3.75544 193.614 2.80161 194.114 2.09835C194.614 1.39509 195.293 1 196 1L212 1C212.707 1 213.385 1.39509 213.886 2.09835C214.386 2.80161 214.667 3.75544 214.667 4.75V16L193.333 16Z" stroke="#FAC254" stroke-width="2" stroke-linecap="round" stroke-linejoin="round"/>
</svg>
